<svg width="12" height="13" viewBox="0 0 12 13" fill="none" xmlns="http://www.w3.org/2000/svg">
<path d="M10.1305 4.71575H9.86987V3.19554C9.86995 1.48871 8.13402 0.100098 6.00025 0.100098C3.86656 0.100098 2.13063 1.48871 2.13063 3.19554V4.71575H1.86987C1.10972 4.71575 0.491211 5.21056 0.491211 5.81868V11.7971C0.491211 12.4052 1.10972 12.9 1.86987 12.9H10.1305C10.8906 12.9 11.5091 12.4052 11.5091 11.7971V5.81868C11.5091 5.21056 10.8907 4.71575 10.1305 4.71575ZM3.31234 3.19554C3.31234 2.00999 4.51815 1.04546 6.00025 1.04546C7.48235 1.04546 8.68816 2.00999 8.68816 3.19554V4.71575H3.31234V3.19554ZM10.3274 11.7972C10.3274 11.8826 10.2372 11.9547 10.1305 11.9547H1.86987C1.76312 11.9547 1.67292 11.8826 1.67292 11.7972V5.81868C1.67292 5.73328 1.76312 5.66112 1.86987 5.66112H2.72149H9.27902H10.1305C10.2372 5.66112 10.3274 5.73328 10.3274 5.81868V11.7972Z" fill="white"/>
<path d="M6.00003 7.43042C5.67372 7.43042 5.40918 7.64199 5.40918 7.9031V9.71285C5.40918 9.97396 5.67372 10.1855 6.00003 10.1855C6.32634 10.1855 6.59089 9.97396 6.59089 9.71285V7.9031C6.59089 7.64199 6.32634 7.43042 6.00003 7.43042Z" fill="white"/>
</svg>
